<svg width="29" height="29" viewBox="0 0 29 29" fill="none"
  xmlns="http://www.w3.org/2000/svg">

  <path d="M13.3971 6.13777L11.8627 3.72679C11.3202 2.87409 9.76599 2.16577 8.54525 2.20664C7.93489 2.22843 7.61557 2.41913 7.5195 2.59076C7.42342 2.76239 7.54775 3.05934 7.641 3.20645L9.05389 5.42401L7.85011 6.13777L6.43723 3.91749C6.00488 3.23914 5.94554 2.539 6.27333 1.94783C6.64351 1.28311 7.45168 0.882638 8.49439 0.844498C10.2492 0.787289 12.2555 1.73534 13.0693 3.02392L14.6009 5.43491L13.3971 6.13777Z" fill="black"/>


  <path d="M2.24218 28.7275C1.72331 28.7268 1.22594 28.5275 0.859306 28.1736C0.492671 27.8196 0.286743 27.3398 0.286743 26.8396V6.85152C0.286743 6.35128 0.492671 5.8715 0.859306 5.51752C1.22594 5.16354 1.72331 4.96432 2.24218 4.96359H12.3161L11.5503 3.75674C11.0643 2.99122 11.0049 2.19845 11.3807 1.52283C11.7961 0.773651 12.6919 0.321421 13.8363 0.277832H14.0031C15.82 0.277832 17.8207 1.26675 18.6543 2.57712L20.1717 4.96632H24.3002C24.7847 4.96465 25.2526 5.137 25.6125 5.44976C25.9725 5.76252 26.1987 6.19328 26.2471 6.6581L28.7056 25.709C28.711 25.7934 28.711 25.878 28.7056 25.9624C28.677 26.7075 28.3492 27.4127 27.7913 27.9292C27.2335 28.4456 26.4893 28.7328 25.7159 28.7302L2.24218 28.7275ZM17.8659 4.96359L16.9786 3.56331C16.5067 2.82231 15.1192 2.17121 14.0115 2.17121H13.907C13.3616 2.19028 13.1468 2.35918 13.1129 2.41639C13.079 2.4736 13.1129 2.5744 13.2288 2.7651L14.6332 4.96359H17.8659Z" fill="white"/>
  <path d="M14.0017 0.547581C15.6972 0.547581 17.6244 1.47929 18.4099 2.72701L19.9443 5.14072L20.0178 5.24697H24.2988C24.7127 5.24686 25.112 5.39469 25.4194 5.66188C25.7268 5.92907 25.9206 6.29665 25.9632 6.69356L28.4216 25.7635C28.4259 25.8334 28.4259 25.9034 28.4216 25.9733C28.3932 26.6471 28.0956 27.2843 27.591 27.7514C27.0865 28.2186 26.4141 28.4795 25.7145 28.4796H2.23236C2.0122 28.48 1.79414 28.4385 1.59067 28.3574C1.3872 28.2763 1.20232 28.1574 1.04664 28.0073C0.890968 27.8572 0.767554 27.679 0.683475 27.4828C0.599396 27.2866 0.556306 27.0764 0.556678 26.8641V6.85157C0.556306 6.63932 0.599396 6.42908 0.683475 6.23292C0.767554 6.03676 0.890968 5.85852 1.04664 5.70844C1.20232 5.55835 1.3872 5.43937 1.59067 5.35831C1.79414 5.27725 2.0122 5.23571 2.23236 5.23607H12.8092L11.7807 3.6015C11.3511 2.92315 11.2918 2.23936 11.6196 1.63729C11.9869 0.975293 12.7951 0.574824 13.835 0.547581H13.9932H14.0017ZM14.4736 5.23607H18.3591L17.209 3.4217C16.6834 2.60441 15.2055 1.89882 14.0017 1.89882H13.8859C13.2727 1.92062 12.9505 2.11404 12.8544 2.28567C12.8223 2.39109 12.8166 2.50236 12.8377 2.61033C12.8588 2.71831 12.9062 2.81992 12.976 2.90681L14.3888 5.1271L14.4764 5.23334L14.4736 5.23607ZM13.9961 0H13.818C12.5719 0.0463128 11.5885 0.544857 11.1251 1.38938C10.7012 2.15218 10.7634 3.04302 11.3031 3.893L11.8061 4.69121H2.24084C1.64676 4.69193 1.07723 4.91977 0.657151 5.32476C0.237074 5.72975 0.000747739 6.27883 0 6.85157V26.8396C0.000747739 27.4124 0.237074 27.9614 0.657151 28.3664C1.07723 28.7714 1.64676 28.9993 2.24084 29H25.723C26.5697 29.0033 27.3845 28.6891 27.9951 28.1238C28.6058 27.5584 28.9645 26.7863 28.9953 25.9706C29.0016 25.8799 29.0016 25.7889 28.9953 25.6981V25.6655L26.5368 6.60911C26.4787 6.07955 26.2188 5.58963 25.8074 5.23429C25.396 4.87895 24.8625 4.68348 24.3101 4.68576H20.3286L18.8931 2.43823C18.0115 1.05157 15.9091 0.00817355 14.0017 0.00817355L13.9961 0ZM13.4111 2.53358C13.5704 2.47334 13.7402 2.44283 13.9113 2.44368H14.0045C15.0105 2.44368 16.3104 3.04575 16.7314 3.70775L17.3559 4.69121H14.7731L13.462 2.62621C13.4394 2.59079 13.4253 2.56082 13.4111 2.53631V2.53358Z" fill="black"/>
  <path d="M23.1097 12.3601C23.1111 13.0023 22.8878 13.6263 22.476 14.1311C22.0641 14.6359 21.4877 14.9921 20.8399 15.1421C20.1921 15.2921 19.5108 15.2272 18.906 14.9577C18.3013 14.6883 17.8084 14.2302 17.5071 13.6573C17.2058 13.0845 17.1136 12.4305 17.2455 11.8009C17.3774 11.1713 17.7256 10.603 18.2338 10.1878C18.7421 9.7726 19.3808 9.53474 20.0466 9.51267C20.7124 9.49061 21.3665 9.68562 21.9031 10.0662C22.2773 10.33 22.5817 10.6752 22.7913 11.0738C23.001 11.4724 23.1101 11.9131 23.1097 12.3601Z" fill="white" stroke="#070707" stroke-width="0.52" stroke-miterlimit="10"/>
  <path d="M6.70116 28.4224C6.55434 28.4441 6.40604 28.455 6.25751 28.4551H2.24209C2.02217 28.4555 1.80433 28.414 1.60105 28.3332C1.39776 28.2523 1.21301 28.1335 1.05737 27.9837C0.901736 27.8339 0.778262 27.656 0.694016 27.4602C0.60977 27.2643 0.566408 27.0544 0.566409 26.8424V6.85158C0.566036 6.63933 0.609126 6.4291 0.693205 6.23294C0.777284 6.03677 0.900699 5.85854 1.05637 5.70846C1.21205 5.55837 1.39693 5.43939 1.6004 5.35833C1.80387 5.27727 2.02193 5.23573 2.24209 5.23609H5.77148C5.77148 5.27695 5.78844 5.32054 5.79409 5.3614L9.0522 25.3222C9.16441 26.0336 8.98016 26.7588 8.53969 27.3396C8.09921 27.9205 7.43827 28.3097 6.70116 28.4224Z" fill="#EFEFEF"/>
  <path d="M17.9767 12.3601C17.978 13.0023 17.7548 13.6263 17.3429 14.1311C16.931 14.6359 16.3546 14.9921 15.7068 15.1421C15.0591 15.2921 14.3777 15.2272 13.773 14.9577C13.1682 14.6883 12.6754 14.2302 12.374 13.6573C12.0727 13.0845 11.9806 12.4305 12.1124 11.8009C12.2443 11.1713 12.5925 10.603 13.1008 10.1878C13.6091 9.7726 14.2477 9.53474 14.9135 9.51267C15.5793 9.49061 16.2334 9.68562 16.77 10.0662C17.1443 10.33 17.4486 10.6752 17.6583 11.0738C17.8679 11.4724 17.977 11.9131 17.9767 12.3601Z" fill="white" stroke="#070707" stroke-width="0.52" stroke-miterlimit="10"/>
  <path d="M15.2436 14.4523C16.4421 14.4523 17.4138 13.5156 17.4138 12.3601C17.4138 11.2046 16.4421 10.2678 15.2436 10.2678C14.045 10.2678 13.0734 11.2046 13.0734 12.3601C13.0734 13.5156 14.045 14.4523 15.2436 14.4523Z" fill="black"/>
  <path d="M20.1465 14.4523C21.3451 14.4523 22.3167 13.5156 22.3167 12.3601C22.3167 11.2046 21.3451 10.2678 20.1465 10.2678C18.9479 10.2678 17.9763 11.2046 17.9763 12.3601C17.9763 13.5156 18.9479 14.4523 20.1465 14.4523Z" fill="black"/>
  <path d="M14.3245 11.2785C14.4759 11.2785 14.5986 11.1602 14.5986 11.0143C14.5986 10.8683 14.4759 10.75 14.3245 10.75C14.1731 10.75 14.0504 10.8683 14.0504 11.0143C14.0504 11.1602 14.1731 11.2785 14.3245 11.2785Z" fill="white"/>
  <path d="M16.6804 13.6323C16.8318 13.6323 16.9545 13.514 16.9545 13.368C16.9545 13.2221 16.8318 13.1038 16.6804 13.1038C16.529 13.1038 16.4063 13.2221 16.4063 13.368C16.4063 13.514 16.529 13.6323 16.6804 13.6323Z" fill="white"/>
  <path d="M21.5073 13.6323C21.6586 13.6323 21.7814 13.514 21.7814 13.368C21.7814 13.2221 21.6586 13.1038 21.5073 13.1038C21.3559 13.1038 21.2332 13.2221 21.2332 13.368C21.2332 13.514 21.3559 13.6323 21.5073 13.6323Z" fill="white"/>
  <path d="M19.2859 11.2785C19.4373 11.2785 19.56 11.1602 19.56 11.0143C19.56 10.8683 19.4373 10.75 19.2859 10.75C19.1345 10.75 19.0118 10.8683 19.0118 11.0143C19.0118 11.1602 19.1345 11.2785 19.2859 11.2785Z" fill="white"/>
  <path d="M13.8345 11.4883C13.8345 11.4883 13.2241 12.2293 13.9192 13.2019" stroke="white" stroke-width="2.4" stroke-miterlimit="10" stroke-linecap="round"/>
  <path d="M18.833 11.5046C18.833 11.5046 18.2226 12.2429 18.9178 13.2155" stroke="white" stroke-width="2.4" stroke-miterlimit="10" stroke-linecap="round"/>
  <path d="M13.072 17.0159C14.127 17.0159 14.9822 16.1913 14.9822 15.1743C14.9822 14.1572 14.127 13.3326 13.072 13.3326C12.017 13.3326 11.1617 14.1572 11.1617 15.1743C11.1617 16.1913 12.017 17.0159 13.072 17.0159Z" fill="white"/>
  <path d="M14.9848 15.2805C14.9848 15.2805 15.0583 13.7985 13.5719 13.3981C13.1569 13.2609 12.7039 13.2765 12.3001 13.442C11.8963 13.6074 11.5703 13.911 11.3848 14.2943" fill="white"/>
  <path d="M14.9848 15.2805C14.9848 15.2805 15.0583 13.7985 13.5719 13.3981C13.1569 13.2609 12.7039 13.2765 12.3001 13.442C11.8963 13.6074 11.5703 13.911 11.3848 14.2943" stroke="#070707" stroke-width="0.52" stroke-miterlimit="10"/>
  <path d="M22.5062 17.1711C23.5612 17.1711 24.4164 16.3466 24.4164 15.3295C24.4164 14.3124 23.5612 13.4879 22.5062 13.4879C21.4512 13.4879 20.5959 14.3124 20.5959 15.3295C20.5959 16.3466 21.4512 17.1711 22.5062 17.1711Z" fill="white"/>
  <path d="M16.7568 15.7272C16.7568 15.7272 16.7766 17.6342 17.7543 17.6342C18.732 17.6342 18.8252 15.6128 18.8252 15.6128" fill="white"/>
  <path d="M16.7568 15.7272C16.7568 15.7272 16.7766 17.6342 17.7543 17.6342C18.732 17.6342 18.8252 15.6128 18.8252 15.6128" stroke="#070707" stroke-width="0.43" stroke-miterlimit="10"/>
  <path d="M20.5965 15.433C20.5965 15.433 20.5231 13.9537 22.0094 13.5533C22.4241 13.4152 22.8771 13.4302 23.281 13.5952C23.6848 13.7602 24.011 14.0636 24.1966 14.4468" fill="white"/>
  <path d="M20.5965 15.433C20.5965 15.433 20.5231 13.9537 22.0094 13.5533C22.4241 13.4152 22.8771 13.4302 23.281 13.5952C23.6848 13.7602 24.011 14.0636 24.1966 14.4468" stroke="#070707" stroke-width="0.52" stroke-miterlimit="10"/>
  <path d="M13.071 16.2231C13.6718 16.2231 14.1589 15.7535 14.1589 15.1742C14.1589 14.595 13.6718 14.1254 13.071 14.1254C12.4701 14.1254 11.983 14.595 11.983 15.1742C11.983 15.7535 12.4701 16.2231 13.071 16.2231Z" fill="#EFEFEF"/>
  <path d="M22.314 16.2067C22.9148 16.2067 23.4019 15.7371 23.4019 15.1579C23.4019 14.5786 22.9148 14.109 22.314 14.109C21.7132 14.109 21.2261 14.5786 21.2261 15.1579C21.2261 15.7371 21.7132 16.2067 22.314 16.2067Z" fill="#EFEFEF"/>

</svg>
