<svg width="24" height="24" viewBox="0 0 24 24" fill="none"
  xmlns="http://www.w3.org/2000/svg">
  <path fill-rule="evenodd" clip-rule="evenodd" d="M12.5279 16.2863C12.2353 16.5792 11.7607 16.5795 11.4677 16.2869C11.4675 16.2867 11.4673 16.2865 11.4671 16.2863L5.84037 10.6567V10.6567C5.54343 10.3677 5.53702 9.89262 5.82607 9.59567C6.11511 9.29872 6.59016 9.29232 6.88711 9.58137C6.89187 9.586 6.89657 9.5907 6.90121 9.59547L11.9975 14.6943L17.0937 9.59547C17.3826 9.2983 17.8576 9.29156 18.1548 9.58041C18.452 9.86926 18.4587 10.3443 18.1699 10.6415C18.1649 10.6466 18.1598 10.6517 18.1546 10.6567L12.5279 16.2863Z" fill="#38383A"/>
</svg>
