<svg width="29" height="30" viewBox="0 0 29 30" fill="none"
  xmlns="http://www.w3.org/2000/svg">
  <path fill-rule="evenodd" clip-rule="evenodd" d="M22.6565 23.9537C22.7182 24.4508 22.3652 24.9037 21.8682 24.9654C21.8312 24.97 21.794 24.9723 21.7568 24.9723H7.24879C6.74829 24.9725 6.34238 24.567 6.34216 24.0665C6.34215 24.0288 6.34448 23.9911 6.34916 23.9537L6.34916 23.9537C6.64636 21.5765 6.79539 19.1832 6.79539 16.7875V11.3786V11.3786C6.79557 10.8779 7.20157 10.4722 7.70223 10.4724C7.70223 10.4724 7.70223 10.4724 7.70223 10.4724H9.52511V8.20673V8.20673C9.52511 5.45393 11.7567 3.22235 14.5095 3.22235C17.2623 3.22235 19.4939 5.45393 19.4939 8.20673V10.4724H21.3035C21.8041 10.4723 22.2101 10.878 22.2102 11.3786V16.7875V16.7873C22.2102 19.183 22.3593 21.5763 22.6565 23.9535L22.6565 23.9537ZM17.6812 8.20675C17.6812 6.45497 16.2611 5.03487 14.5093 5.03487C12.7575 5.03487 11.3374 6.45497 11.3374 8.20675V10.4724H17.6812V8.20675Z" fill="#38383A"/>
</svg>
