<svg width="29" height="30" viewBox="0 0 29 30" fill="none"
  xmlns="http://www.w3.org/2000/svg">
  <path fill-rule="evenodd" clip-rule="evenodd" d="M15.225 25.5158C14.9389 25.9138 14.3844 26.0044 13.9865 25.7183C13.9085 25.6622 13.8401 25.5939 13.784 25.5158C12.5262 23.7535 7.25452 16.0884 7.25452 11.385V11.385C7.25452 7.38094 10.5005 4.13501 14.5045 4.13501C18.5086 4.13501 21.7545 7.38094 21.7545 11.385C21.7545 16.0884 16.4831 23.7535 15.225 25.5158H15.225ZM14.5045 6.85385C12.002 6.85385 9.97327 8.88256 9.97327 11.3851C9.97327 13.8876 12.002 15.9163 14.5045 15.9163C17.0071 15.9163 19.0358 13.8876 19.0358 11.3851C19.0358 8.88256 17.0071 6.85385 14.5045 6.85385V6.85385Z" fill="#38383A"/>
</svg>
