<svg width="24" height="25" viewBox="0 0 24 25" fill="none" xmlns="http://www.w3.org/2000/svg">
<path fill-rule="evenodd" clip-rule="evenodd" d="M10.8787 4.25855C14.8084 4.25313 17.9984 7.43436 18.0038 11.364C18.0059 12.8978 17.5124 14.3912 16.5967 15.6217L20.4431 18.875C21.0608 19.4021 21.1342 20.3301 20.6071 20.9478C20.08 21.5654 19.152 21.6388 18.5344 21.1117C18.4755 21.0615 18.4206 21.0067 18.3704 20.9478L15.1162 17.102C11.9562 19.444 7.49599 18.7809 5.15401 15.6209C2.812 12.4609 3.47509 8.00068 6.63506 5.6587C7.86277 4.74879 9.35059 4.2579 10.8787 4.25856L10.8787 4.25855ZM10.8787 17.0086C13.9853 17.0086 16.5037 14.4902 16.5037 11.3836C16.5037 8.27695 13.9853 5.75855 10.8787 5.75855C7.7721 5.75855 5.2537 8.27695 5.2537 11.3836V11.3835C5.2537 14.4901 7.77208 17.0085 10.8787 17.0085L10.8787 17.0086Z" fill="black" fill-opacity="0.5"/>
</svg>
