<svg width="29" height="30" viewBox="0 0 29 30" fill="none"
  xmlns="http://www.w3.org/2000/svg">
  <path fill-rule="evenodd" clip-rule="evenodd" d="M10.875 5.03174V6.84424C10.875 7.34475 10.4693 7.75049 9.96875 7.75049C9.46824 7.75049 9.0625 7.34475 9.0625 6.84424V5.03174C9.0625 4.53123 9.46824 4.12549 9.96875 4.12549C10.4693 4.12549 10.875 4.53123 10.875 5.03174ZM24.4688 7.75049V23.1567C24.4688 24.1578 23.6573 24.9692 22.6562 24.9692H6.34375C5.34273 24.9692 4.53125 24.1578 4.53125 23.1567V7.75049C4.53125 6.74947 5.34273 5.93799 6.34375 5.93799H7.70312C7.95338 5.93799 8.15625 6.14086 8.15625 6.39111V6.76639V6.7664C8.14037 7.71911 8.8452 8.53059 9.79077 8.64822C10.7871 8.74637 11.6744 8.01823 11.7725 7.02189C11.7783 6.96285 11.7812 6.90356 11.7812 6.84423V6.39111C11.7812 6.14086 11.9841 5.93798 12.2344 5.93798H16.7656C17.0159 5.93798 17.2188 6.14086 17.2188 6.39111V6.76639V6.76639C17.2029 7.71907 17.9077 8.53052 18.8532 8.64822C19.8495 8.74639 20.7368 8.01826 20.835 7.0219C20.8408 6.96285 20.8437 6.90356 20.8438 6.84424V6.39111C20.8438 6.14086 21.0466 5.93799 21.2969 5.93799H22.6562C23.6573 5.93799 24.4688 6.74947 24.4688 7.75049V7.75049ZM22.2031 13.188H6.79688C6.54662 13.188 6.34375 13.3909 6.34375 13.6411V22.7036C6.34375 22.9539 6.54662 23.1567 6.79688 23.1567H22.2031C22.4534 23.1567 22.6562 22.9539 22.6562 22.7036V13.6411C22.6562 13.3909 22.4534 13.188 22.2031 13.188ZM19.0312 4.12549C19.5318 4.12549 19.9375 4.53123 19.9375 5.03174V6.84424C19.9375 7.34475 19.5318 7.75049 19.0312 7.75049C18.5307 7.75049 18.125 7.34475 18.125 6.84424V5.03174C18.125 4.53123 18.5307 4.12549 19.0312 4.12549Z" fill="#38383A"/>
</svg>
